<svg id="Capa_1" data-name="Capa 1" xmlns="http://www.w3.org/2000/svg" viewBox="0 0 455.03 512"><defs><style>.cls-1{fill:#9ae6b4;}</style></defs><path class="cls-1" d="M467,216.11c-174-174-172.45-172.57-174.18-174l-.11-.09a56.49,56.49,0,0,0-65.09-5.9l-1.69-.54a105.87,105.87,0,0,0-11-24.55,23,23,0,0,0-39.3,0,108.09,108.09,0,0,0-6.43,12.24,7.5,7.5,0,0,0,13.71,6.1,90.57,90.57,0,0,1,5.51-10.51,8,8,0,0,1,13.71,0,90.44,90.44,0,0,1,10.46,24.68A7.51,7.51,0,0,0,218,49a91.79,91.79,0,0,1,24.67,10.46,8,8,0,0,1,0,13.71A90.44,90.44,0,0,1,218,83.6,7.47,7.47,0,0,0,212.56,89a90.86,90.86,0,0,1-10.45,24.66,8,8,0,0,1-13.72,0,91,91,0,0,1-8.25-17.45c-.86-2.45-1.59-4.87-2.19-7.21a7.52,7.52,0,0,0-5.4-5.39,90.63,90.63,0,0,1-24.68-10.47,8,8,0,0,1,0-13.71A91.9,91.9,0,0,1,160.53,53a7.5,7.5,0,1,0-5.73-13.86A106.64,106.64,0,0,0,140,46.62a23,23,0,0,0,0,39.3,105.53,105.53,0,0,0,24.24,10.92L45,216.11a56.39,56.39,0,0,0,0,79.78c174,174,172.45,172.57,174.18,174l.11.09a56,56,0,0,0,36.57,13.57,57.5,57.5,0,0,0,7-.45,62.74,62.74,0,0,0,14.87,7.12A65.5,65.5,0,0,0,284.17,504a16.66,16.66,0,0,0,14.29,8h0a16.67,16.67,0,0,0,14.29-8,65.73,65.73,0,0,0,6.38-13.78,66.08,66.08,0,0,0,13.79-6.39,16.72,16.72,0,0,0,0-28.58,66.12,66.12,0,0,0-13.79-6.39c-.41-1.25-.87-2.48-1.36-3.71L467,295.89A56.4,56.4,0,0,0,467,216.11ZM200.89,131.84a23,23,0,0,0,14-10.36A105.65,105.65,0,0,0,225.9,97a105.44,105.44,0,0,0,24.55-11,23,23,0,0,0,0-39.3c-1.18-.72-2.39-1.42-3.61-2.1A41.41,41.41,0,0,1,282.4,53L342,216.71a114.58,114.58,0,0,1,6.66,31.79H163.31A114.58,114.58,0,0,1,170,216.71ZM55.63,226.71,170.42,111.92c4.39,9.21,7.8,15,15,18.44l-29.58,81.21a129.73,129.73,0,0,0-7.62,36.93H44.18A41.21,41.21,0,0,1,55.63,226.71Zm0,58.58A41.21,41.21,0,0,1,44.18,263.5H148.26a129.39,129.39,0,0,0,7.62,36.93l48.78,133.92c-23.31-23.31-68.9-68.93-149-149.06ZM256,468.49A41,41,0,0,1,229.6,459L170,295.29a114.51,114.51,0,0,1-6.66-31.79H348.69A114.58,114.58,0,0,1,342,295.29L293.81,427.66a16.7,16.7,0,0,0-9.64,7.38,65.57,65.57,0,0,0-6.38,13.79A65.57,65.57,0,0,0,264,455.21a16.7,16.7,0,0,0-8,13.29Zm69.1-.49a1.71,1.71,0,0,1,0,3,50.44,50.44,0,0,1-13.87,5.89,7.51,7.51,0,0,0-5.39,5.39A50.89,50.89,0,0,1,300,496.13a1.71,1.71,0,0,1-3,0,51,51,0,0,1-5.87-13.86,7.51,7.51,0,0,0-5.39-5.39A50.44,50.44,0,0,1,271.83,471a1.72,1.72,0,0,1,0-3,50.79,50.79,0,0,1,13.87-5.87,7.51,7.51,0,0,0,5.39-5.39A50.51,50.51,0,0,1,297,442.87h0a1.7,1.7,0,0,1,3,0,51.47,51.47,0,0,1,5.88,13.87,7.51,7.51,0,0,0,5.39,5.39A50.79,50.79,0,0,1,325.09,468ZM310,431.64q-.61-.58-1.29-1.11l47.39-130.1a129.73,129.73,0,0,0,7.62-36.93H406a7.5,7.5,0,0,0,0-15H363.74a129.39,129.39,0,0,0-7.62-36.93L307.34,77.65c23,23,65.57,65.6,149,149.06a41.21,41.21,0,0,1,11.45,21.79H436a7.5,7.5,0,0,0,0,15h31.82a41.21,41.21,0,0,1-11.45,21.79Z" transform="translate(-28.49 0)"/><path class="cls-1" d="M432.5,116.89h6a7.5,7.5,0,0,0,0-15h-6a7.5,7.5,0,0,0,0,15Z" transform="translate(-28.49 0)"/><path class="cls-1" d="M398.5,116.89h6a7.5,7.5,0,0,0,0-15h-6a7.5,7.5,0,0,0,0,15Z" transform="translate(-28.49 0)"/><path class="cls-1" d="M418.5,115.89a7.5,7.5,0,0,0-7.5,7.5v6a7.5,7.5,0,0,0,15,0v-6A7.5,7.5,0,0,0,418.5,115.89Z" transform="translate(-28.49 0)"/><path class="cls-1" d="M418.5,102.89a7.5,7.5,0,0,0,7.5-7.5v-6a7.5,7.5,0,1,0-15,0v6A7.5,7.5,0,0,0,418.5,102.89Z" transform="translate(-28.49 0)"/><path class="cls-1" d="M83.5,368.5h-6a7.5,7.5,0,0,0,0,15h6a7.5,7.5,0,0,0,0-15Z" transform="translate(-28.49 0)"/><path class="cls-1" d="M49.5,368.5h-6a7.5,7.5,0,0,0,0,15h6a7.5,7.5,0,0,0,0-15Z" transform="translate(-28.49 0)"/><path class="cls-1" d="M63.5,382.5A7.5,7.5,0,0,0,56,390v6a7.5,7.5,0,0,0,15,0v-6A7.5,7.5,0,0,0,63.5,382.5Z" transform="translate(-28.49 0)"/><path class="cls-1" d="M63.5,369.5A7.5,7.5,0,0,0,71,362v-6a7.5,7.5,0,0,0-15,0v6A7.5,7.5,0,0,0,63.5,369.5Z" transform="translate(-28.49 0)"/><path class="cls-1" d="M223.1,205.17a7.5,7.5,0,0,0-11.31-9.86,11,11,0,0,1-16.58,0,7.5,7.5,0,0,0-11.31,9.86,26,26,0,0,0,39.2,0Z" transform="translate(-28.49 0)"/><path class="cls-1" d="M327.1,205.17a7.5,7.5,0,0,0-11.31-9.86,11,11,0,0,1-16.58,0,7.5,7.5,0,0,0-11.31,9.86,26,26,0,0,0,39.2,0Z" transform="translate(-28.49 0)"/><path class="cls-1" d="M256,230.78c5.95,0,10.78-5.15,10.78-11.5S262,207.78,256,207.78s-10.78,5.15-10.78,11.5,4.82,11.5,10.78,11.5Z" transform="translate(-28.49 0)"/></svg>