<?xml version="1.0" encoding="UTF-8" standalone="no"?>
<!DOCTYPE svg PUBLIC "-//W3C//DTD SVG 1.1//EN" "http://www.w3.org/Graphics/SVG/1.1/DTD/svg11.dtd">
<svg width="100%" height="100%" viewBox="0 0 542 220" version="1.1" xmlns="http://www.w3.org/2000/svg" xmlns:xlink="http://www.w3.org/1999/xlink" xml:space="preserve" xmlns:serif="http://www.serif.com/" style="fill-rule:evenodd;clip-rule:evenodd;stroke-linejoin:round;stroke-miterlimit:2;">
    <g transform="matrix(1,0,0,1,-35.5851,-40.0944)">
        <g transform="matrix(1.47054,0,0,1.47054,-309.998,18.0243)">
            <g transform="matrix(96,0,0,96,376.039,123.35)">
                <path d="M0.207,-0.249L0.409,-0.249L0.409,-0.38L0.207,-0.38L0.207,-0.569L0.434,-0.569L0.434,-0.7L0.066,-0.7L0.066,-0L0.207,-0L0.207,-0.249Z" style="fill:rgb(240,255,244);fill-rule:nonzero;"/>
            </g>
            <g transform="matrix(96,0,0,96,419.239,123.35)">
                <path d="M0.246,-0.492C0.139,-0.492 0.03,-0.415 0.03,-0.247C0.03,-0.086 0.129,0.01 0.266,0.01C0.322,0.01 0.378,-0.006 0.427,-0.033L0.413,-0.135C0.382,-0.119 0.326,-0.104 0.281,-0.104C0.222,-0.104 0.168,-0.126 0.162,-0.212L0.428,-0.212C0.462,-0.376 0.399,-0.492 0.246,-0.492ZM0.163,-0.302C0.171,-0.358 0.208,-0.385 0.246,-0.385C0.283,-0.385 0.322,-0.365 0.319,-0.302L0.163,-0.302Z" style="fill:rgb(240,255,244);fill-rule:nonzero;"/>
            </g>
            <g transform="matrix(96,0,0,96,464.071,123.35)">
                <path d="M0.194,-0.415C0.187,-0.501 0.08,-0.499 0.022,-0.483L0.022,-0.397C0.058,-0.404 0.069,-0.378 0.069,-0.338L0.069,-0L0.198,-0L0.198,-0.254C0.198,-0.334 0.241,-0.37 0.291,-0.37C0.317,-0.37 0.345,-0.361 0.362,-0.348L0.4,-0.456C0.375,-0.479 0.338,-0.493 0.307,-0.492C0.258,-0.492 0.215,-0.465 0.194,-0.415L0.194,-0.415Z" style="fill:rgb(240,255,244);fill-rule:nonzero;"/>
            </g>
            <g transform="matrix(96,0,0,96,502.759,123.35)">
                <path d="M0.194,-0.415C0.187,-0.501 0.08,-0.499 0.022,-0.483L0.022,-0.397C0.058,-0.404 0.069,-0.378 0.069,-0.338L0.069,-0L0.198,-0L0.198,-0.254C0.198,-0.334 0.241,-0.37 0.291,-0.37C0.317,-0.37 0.345,-0.361 0.362,-0.348L0.4,-0.456C0.375,-0.479 0.338,-0.493 0.307,-0.492C0.258,-0.492 0.215,-0.465 0.194,-0.415L0.194,-0.415Z" style="fill:rgb(240,255,244);fill-rule:nonzero;"/>
            </g>
            <g transform="matrix(96,0,0,96,541.447,123.35)">
                <path d="M0.042,-0.63C0.042,-0.575 0.082,-0.548 0.121,-0.549C0.159,-0.55 0.196,-0.577 0.196,-0.63C0.196,-0.682 0.158,-0.71 0.12,-0.71C0.081,-0.71 0.042,-0.685 0.042,-0.63L0.042,-0.63ZM0.053,-0L0.185,-0L0.185,-0.482L0.053,-0.482L0.053,-0Z" style="fill:rgb(240,255,244);fill-rule:nonzero;"/>
            </g>
            <g transform="matrix(96,0,0,96,564.295,123.35)">
                <path d="M0.028,-0.15C0.03,-0.054 0.097,0.01 0.221,0.01C0.333,0.01 0.407,-0.051 0.407,-0.143C0.407,-0.266 0.309,-0.283 0.218,-0.296C0.195,-0.299 0.164,-0.307 0.165,-0.343C0.165,-0.371 0.186,-0.387 0.218,-0.387C0.251,-0.387 0.274,-0.368 0.276,-0.34L0.393,-0.34C0.398,-0.442 0.311,-0.492 0.215,-0.492C0.108,-0.492 0.036,-0.432 0.036,-0.341C0.036,-0.231 0.142,-0.207 0.223,-0.193C0.249,-0.189 0.274,-0.174 0.274,-0.141C0.274,-0.109 0.25,-0.091 0.215,-0.091C0.182,-0.091 0.159,-0.115 0.158,-0.15L0.028,-0.15Z" style="fill:rgb(240,255,244);fill-rule:nonzero;"/>
            </g>
        </g>
        <g transform="matrix(0.42932,0,0,0.42932,23.3553,40.0944)">
            <g>
                <path d="M461.673,221.411C308.791,68.517 291.619,51.267 288.766,48.582C288.198,48.048 288.197,48.09 287.805,47.754C269.091,31.696 241.367,32.205 223.233,48.585C222.615,49.143 222.007,49.717 221.413,50.311L50.326,221.411C40.775,230.962 36,243.481 36,256C36,268.519 40.775,281.038 50.326,290.589C203.209,443.483 220.381,460.733 223.234,463.417C223.802,463.952 223.803,463.909 224.195,464.245C242.908,480.302 270.631,479.795 288.767,463.414C289.385,462.856 289.993,462.282 290.587,461.688L461.674,290.588C471.224,281.038 476,268.519 476,256C476,243.481 471.224,230.962 461.673,221.411Z" style="fill:rgb(96,217,167);fill-rule:nonzero;"/>
                <path d="M36,256C36,268.519 40.775,281.038 50.326,290.589C203.209,443.483 220.381,460.733 223.234,463.417C223.802,463.952 223.803,463.909 224.195,464.245C242.908,480.302 270.631,479.795 288.767,463.414C289.385,462.856 289.993,462.282 290.587,461.688L461.674,290.588C471.224,281.038 476,268.519 476,256L36,256Z" style="fill:rgb(62,191,137);fill-rule:nonzero;"/>
                <path d="M349.074,214.14L288.766,48.582C288.198,48.048 288.197,48.09 287.805,47.754C269.091,31.696 241.367,32.205 223.233,48.585L162.926,214.14C158.002,227.659 155.539,241.83 155.539,256C155.539,270.171 158.001,284.341 162.926,297.86L223.234,463.418C223.802,463.953 223.803,463.91 224.195,464.246C242.908,480.303 270.631,479.796 288.767,463.415L349.074,297.86C353.999,284.341 356.461,270.17 356.461,256C356.461,241.829 353.998,227.659 349.074,214.14Z" style="fill:rgb(96,217,167);fill-rule:nonzero;"/>
                <path d="M288.766,48.582C288.198,48.048 288.197,48.09 287.805,47.754C269.091,31.696 241.367,32.205 223.233,48.585L162.926,214.14C158.002,227.659 155.539,241.83 155.539,256L356.461,256C356.461,241.829 353.999,227.659 349.074,214.14L288.766,48.582Z" style="fill:rgb(161,227,200);fill-rule:nonzero;"/>
            </g>
            <g>
                <path d="M329.005,461.608C324.126,458.622 318.776,456.329 313.094,454.867C311.631,449.184 309.338,443.835 306.352,438.956C302.716,433.015 294.203,433.015 290.568,438.956C287.582,443.835 285.289,449.185 283.826,454.867C278.144,456.33 272.795,458.622 267.915,461.608C264.945,463.426 263.459,466.463 263.459,469.5C263.459,472.537 264.944,475.574 267.915,477.392C272.794,480.378 278.146,482.681 283.829,484.144C285.292,489.826 287.582,495.165 290.568,500.045C294.203,505.986 302.716,505.986 306.352,500.045C309.338,495.166 311.627,489.827 313.091,484.144C318.773,482.681 324.126,480.378 329.004,477.392C334.946,473.756 334.946,465.244 329.005,461.608Z" style="fill:rgb(213,241,229);fill-rule:nonzero;"/>
                <path d="M246.538,53.02C238.345,48.006 229.362,44.156 219.821,41.7C217.364,32.158 213.515,23.175 208.501,14.982C202.396,5.006 188.101,5.006 181.997,14.982C176.982,23.175 173.133,32.158 170.675,41.7C161.134,44.156 152.151,48.006 143.958,53.02C138.97,56.072 136.476,61.172 136.476,66.272C136.476,71.372 138.97,76.471 143.958,79.524C152.151,84.538 161.138,88.406 170.681,90.862C173.138,100.403 176.982,109.369 181.997,117.562C188.101,127.538 202.396,127.538 208.501,117.562C213.514,109.369 217.359,100.403 219.817,90.862C229.358,88.405 238.346,84.538 246.539,79.524C256.513,73.419 256.514,59.125 246.538,53.02Z" style="fill:rgb(213,241,229);fill-rule:nonzero;"/>
            </g>
            <g>
                <ellipse cx="187.743" cy="228.344" rx="27.03" ry="21.525" style="fill:rgb(255,142,158);"/>
                <ellipse cx="323.256" cy="228.344" rx="27.03" ry="21.525" style="fill:rgb(255,142,158);"/>
            </g>
            <g>
                <path d="M466.977,216.107C292.966,42.081 294.533,43.54 292.801,42.154L292.688,42.062C274.419,26.385 248.174,24.169 227.6,36.165C227.035,35.982 226.469,35.796 225.907,35.625C223.305,27.015 219.611,18.771 214.897,11.066C210.656,4.136 203.449,-0 195.248,-0C187.185,-0 179.84,4.137 175.6,11.065C173.199,14.988 171.035,19.106 169.168,23.305C167.485,27.089 169.19,31.522 172.975,33.204C176.761,34.89 181.193,33.181 182.875,29.396C184.476,25.794 186.333,22.261 188.393,18.895C191.58,13.69 198.913,13.683 202.103,18.895C206.802,26.574 210.32,34.875 212.558,43.569C213.239,46.215 215.306,48.281 217.952,48.963C226.091,51.056 234.732,54.585 242.624,59.416C247.829,62.601 247.836,69.935 242.624,73.126C234.918,77.843 226.616,81.366 217.948,83.599C215.302,84.28 213.237,86.345 212.555,88.991C210.318,97.675 206.802,105.97 202.105,113.646C198.92,118.848 191.584,118.859 188.394,113.647C185.044,108.173 182.267,102.303 180.138,96.2C179.284,93.753 178.546,91.327 177.945,88.992C177.264,86.346 175.198,84.28 172.552,83.599C163.884,81.367 155.581,77.843 147.874,73.126C142.672,69.94 142.66,62.607 147.872,59.417C151.912,56.946 156.171,54.778 160.533,52.973C164.36,51.389 166.179,47.002 164.595,43.175C163.011,39.347 158.625,37.528 154.797,39.113C149.714,41.217 144.751,43.742 140.044,46.621C125.273,55.663 125.303,76.896 140.044,85.919C147.671,90.587 155.805,94.249 164.279,96.843L45.022,216.107C22.977,238.157 22.972,273.84 45.022,295.892C219.047,469.932 217.472,468.465 219.198,469.845L219.31,469.938C229.638,478.799 242.545,483.514 255.878,483.513C258.216,483.513 260.569,483.351 262.922,483.058C265.105,484.634 270.956,487.931 277.788,490.183C279.373,494.995 281.512,499.613 284.171,503.957C287.252,508.992 292.592,511.998 298.458,511.998L298.459,511.998C304.325,511.998 309.667,508.993 312.75,503.957C315.408,499.612 317.546,494.994 319.131,490.183C323.939,488.598 328.561,486.454 332.919,483.787C343.652,477.218 343.629,461.764 332.919,455.208C328.573,452.549 323.951,450.409 319.131,448.823C318.718,447.573 318.258,446.336 317.769,445.109L466.977,295.891C489.024,273.841 489.025,238.159 466.977,216.107ZM200.887,131.842C206.651,130.393 211.672,126.746 214.898,121.476C219.608,113.778 223.3,105.543 225.9,96.946C234.489,94.346 242.731,90.647 250.453,85.92C265.224,76.879 265.192,55.643 250.453,46.622C249.266,45.896 248.057,45.199 246.838,44.519C259.118,41.749 272.337,44.663 282.399,53.016L342.028,216.706C345.77,226.981 347.984,237.646 348.691,248.5L163.31,248.5C164.017,237.646 166.231,226.979 169.973,216.707L200.887,131.842ZM55.63,226.713L170.416,111.918C174.815,121.127 178.224,126.953 185.462,130.362L155.879,211.573C151.535,223.498 148.986,235.888 148.261,248.5L44.184,248.5C45.677,240.293 49.606,232.738 55.63,226.713ZM55.63,285.287C49.606,279.262 45.677,271.706 44.184,263.5L148.261,263.5C148.986,276.112 151.535,288.502 155.879,300.428L204.661,434.345C181.346,411.035 135.759,365.42 55.63,285.287ZM255.993,468.495C246.396,468.514 237.103,465.211 229.598,458.975L169.973,295.294C166.231,285.021 164.017,274.355 163.31,263.5L348.69,263.5C347.983,274.354 345.769,285.019 342.027,295.293L293.809,427.66C289.847,428.801 286.411,431.381 284.171,435.041C281.512,439.386 279.372,444.007 277.785,448.826C272.968,450.412 268.347,452.551 263.999,455.211C259.255,458.116 256.315,463.029 255.993,468.495ZM325.089,468.004C326.256,468.719 326.26,470.278 325.089,470.995C320.756,473.647 316.09,475.628 311.221,476.882C308.576,477.563 306.51,479.628 305.828,482.274C304.571,487.153 302.595,491.816 299.955,496.129C299.242,497.296 297.68,497.298 296.965,496.13C294.324,491.814 292.348,487.152 291.092,482.275C290.411,479.629 288.344,477.563 285.698,476.881C280.83,475.628 276.164,473.648 271.827,470.993C270.716,470.311 270.619,468.744 271.828,468.005C276.144,465.364 280.81,463.388 285.695,462.131C288.341,461.449 290.407,459.384 291.089,456.737C292.348,451.849 294.324,447.183 296.965,442.87L296.965,442.869C297.679,441.703 299.24,441.703 299.953,442.869C302.469,446.979 304.55,451.769 305.829,456.736C306.51,459.382 308.576,461.449 311.222,462.13C316.111,463.389 320.776,465.365 325.089,468.004ZM310.025,431.644C309.612,431.247 309.177,430.879 308.729,430.529L356.121,300.427C360.465,288.501 363.013,276.111 363.739,263.5L406,263.5C410.143,263.5 413.5,260.143 413.5,256C413.5,251.857 410.143,248.5 406,248.5L363.739,248.5C363.014,235.89 360.465,223.499 356.121,211.572L307.338,77.655C330.303,100.614 372.913,143.25 456.37,226.713C462.394,232.738 466.323,240.294 467.816,248.5L436,248.5C431.857,248.5 428.5,251.857 428.5,256C428.5,260.143 431.857,263.5 436,263.5L467.816,263.5C466.323,271.707 462.394,279.262 456.37,285.287L310.025,431.644Z" style="fill:rgb(49,61,64);fill-rule:nonzero;"/>
                <g>
                    <path d="M432.5,116.891L438.5,116.891C442.642,116.891 446,113.534 446,109.391C446,105.248 442.642,101.891 438.5,101.891L432.5,101.891C428.358,101.891 425,105.248 425,109.391C425,113.534 428.358,116.891 432.5,116.891Z" style="fill:rgb(49,61,64);fill-rule:nonzero;"/>
                    <path d="M398.5,116.891L404.5,116.891C408.642,116.891 412,113.534 412,109.391C412,105.248 408.642,101.891 404.5,101.891L398.5,101.891C394.358,101.891 391,105.248 391,109.391C391,113.534 394.358,116.891 398.5,116.891Z" style="fill:rgb(49,61,64);fill-rule:nonzero;"/>
                    <path d="M418.5,115.891C414.358,115.891 411,119.248 411,123.391L411,129.391C411,133.534 414.358,136.891 418.5,136.891C422.642,136.891 426,133.534 426,129.391L426,123.391C426,119.248 422.642,115.891 418.5,115.891Z" style="fill:rgb(49,61,64);fill-rule:nonzero;"/>
                    <path d="M418.5,102.891C422.642,102.891 426,99.534 426,95.391L426,89.391C426,85.248 422.642,81.891 418.5,81.891C414.358,81.891 411,85.248 411,89.391L411,95.391C411,99.533 414.358,102.891 418.5,102.891Z" style="fill:rgb(49,61,64);fill-rule:nonzero;"/>
                    <path d="M83.5,368.5L77.5,368.5C73.358,368.5 70,371.857 70,376C70,380.143 73.358,383.5 77.5,383.5L83.5,383.5C87.642,383.5 91,380.143 91,376C91,371.857 87.642,368.5 83.5,368.5Z" style="fill:rgb(49,61,64);fill-rule:nonzero;"/>
                    <path d="M49.5,368.5L43.5,368.5C39.358,368.5 36,371.857 36,376C36,380.143 39.358,383.5 43.5,383.5L49.5,383.5C53.642,383.5 57,380.143 57,376C57,371.857 53.642,368.5 49.5,368.5Z" style="fill:rgb(49,61,64);fill-rule:nonzero;"/>
                    <path d="M63.5,382.5C59.358,382.5 56,385.857 56,390L56,396C56,400.143 59.358,403.5 63.5,403.5C67.642,403.5 71,400.143 71,396L71,390C71,385.857 67.642,382.5 63.5,382.5Z" style="fill:rgb(49,61,64);fill-rule:nonzero;"/>
                    <path d="M63.5,369.5C67.642,369.5 71,366.143 71,362L71,356C71,351.857 67.642,348.5 63.5,348.5C59.358,348.5 56,351.857 56,356L56,362C56,366.143 59.358,369.5 63.5,369.5Z" style="fill:rgb(49,61,64);fill-rule:nonzero;"/>
                </g>
                <path d="M223.098,205.167C225.819,202.045 225.494,197.307 222.371,194.586C219.247,191.864 214.511,192.19 211.789,195.314C207.397,200.354 199.593,200.349 195.205,195.314C192.484,192.19 187.747,191.866 184.623,194.586C181.499,197.306 181.175,202.045 183.896,205.167C194.266,217.069 212.738,217.057 223.098,205.167Z" style="fill:rgb(49,61,64);fill-rule:nonzero;"/>
                <path d="M327.104,205.167C329.825,202.045 329.5,197.307 326.376,194.586C323.252,191.864 318.515,192.19 315.794,195.314C311.401,200.354 303.598,200.349 299.21,195.314C296.489,192.19 291.751,191.866 288.628,194.586C285.505,197.307 285.18,202.045 287.901,205.167C298.255,217.048 316.727,217.076 327.104,205.167Z" style="fill:rgb(49,61,64);fill-rule:nonzero;"/>
                <path d="M256,230.778C261.955,230.778 266.783,225.629 266.783,219.278C266.783,212.927 261.955,207.778 256,207.778C250.045,207.778 245.217,212.927 245.217,219.278C245.217,225.629 250.044,230.778 256,230.778Z" style="fill:rgb(49,61,64);fill-rule:nonzero;"/>
            </g>
        </g>
    </g>
</svg>
